<svg xmlns="http://www.w3.org/2000/svg" viewBox="0 0 1920 917" preserveAspectRatio="xMidYMid" width="1920" height="917" xmlns:xlink="http://www.w3.org/1999/xlink" style="shape-rendering:auto;display:block;background-position-x:0%;background-position-y:0%;background-size:auto;background-origin:padding-box;background-clip:border-box;background:scroll rgb(255, 255, 255) none  repeat;width:1920px;height:917px;;animation:none"><g><path fill="rgb(12, 56, 102)" d="M-57.60 0.00L0.00 0.00L-28.80 49.88zM0.00 0.00L-28.80 49.88L28.80 49.88zM230.40 0.00L201.60 49.88L259.20 49.88zM748.80 0.00L806.40 0.00L777.60 49.88zM864.00 0.00L921.60 0.00L892.80 49.88zM1152.00 0.00L1123.20 49.88L1180.80 49.88zM1497.60 0.00L1555.20 0.00L1526.40 49.88zM-28.80 49.88L-57.60 99.77L0.00 99.77zM-28.80 49.88L28.80 49.88L0.00 99.77zM28.80 49.88L0.00 99.77L57.60 99.77zM28.80 49.88L86.40 49.88L57.60 99.77zM201.60 49.88L172.80 99.77L230.40 99.77zM432.00 49.88L403.20 99.77L460.80 99.77zM432.00 49.88L489.60 49.88L460.80 99.77zM489.60 49.88L460.80 99.77L518.40 99.77zM489.60 49.88L547.20 49.88L518.40 99.77zM547.20 49.88L518.40 99.77L576.00 99.77zM892.80 49.88L864.00 99.77L921.60 99.77zM1123.20 49.88L1180.80 49.88L1152.00 99.77zM1353.60 49.88L1411.20 49.88L1382.40 99.77zM1699.20 49.88L1670.40 99.77L1728.00 99.77zM1814.40 49.88L1785.60 99.77L1843.20 99.77zM0.00 99.77L-28.80 149.65L28.80 149.65zM115.20 99.77L86.40 149.65L144.00 149.65zM115.20 99.77L172.80 99.77L144.00 149.65zM345.60 99.77L316.80 149.65L374.40 149.65zM345.60 99.77L403.20 99.77L374.40 149.65zM748.80 99.77L720.00 149.65L777.60 149.65zM806.40 99.77L777.60 149.65L835.20 149.65zM806.40 99.77L864.00 99.77L835.20 149.65zM1152.00 99.77L1123.20 149.65L1180.80 149.65zM1209.60 99.77L1180.80 149.65L1238.40 149.65zM1497.60 99.77L1468.80 149.65L1526.40 149.65zM1497.60 99.77L1555.20 99.77L1526.40 149.65zM1670.40 99.77L1641.60 149.65L1699.20 149.65zM-86.40 149.65L-28.80 149.65L-57.60 199.53zM-28.80 149.65L28.80 149.65L0.00 199.53zM28.80 149.65L86.40 149.65L57.60 199.53zM86.40 149.65L144.00 149.65L115.20 199.53zM144.00 149.65L201.60 149.65L172.80 199.53zM201.60 149.65L172.80 199.53L230.40 199.53zM259.20 149.65L316.80 149.65L288.00 199.53zM432.00 149.65L403.20 199.53L460.80 199.53zM489.60 149.65L547.20 149.65L518.40 199.53zM547.20 149.65L518.40 199.53L576.00 199.53zM720.00 149.65L777.60 149.65L748.80 199.53zM892.80 149.65L864.00 199.53L921.60 199.53zM-57.60 199.53L0.00 199.53L-28.80 249.42zM57.60 199.53L28.80 249.42L86.40 249.42zM115.20 199.53L172.80 199.53L144.00 249.42zM172.80 199.53L144.00 249.42L201.60 249.42zM230.40 199.53L288.00 199.53L259.20 249.42zM288.00 199.53L259.20 249.42L316.80 249.42zM288.00 199.53L345.60 199.53L316.80 249.42zM345.60 199.53L403.20 199.53L374.40 249.42zM748.80 199.53L720.00 249.42L777.60 249.42zM864.00 199.53L835.20 249.42L892.80 249.42zM-28.80 249.42L-57.60 299.30L0.00 299.30zM86.40 249.42L57.60 299.30L115.20 299.30zM144.00 249.42L115.20 299.30L172.80 299.30zM259.20 249.42L316.80 249.42L288.00 299.30zM316.80 249.42L288.00 299.30L345.60 299.30zM316.80 249.42L374.40 249.42L345.60 299.30zM374.40 249.42L345.60 299.30L403.20 299.30zM374.40 249.42L432.00 249.42L403.20 299.30zM604.80 249.42L662.40 249.42L633.60 299.30zM720.00 249.42L691.20 299.30L748.80 299.30zM777.60 249.42L835.20 249.42L806.40 299.30zM1123.20 249.42L1180.80 249.42L1152.00 299.30zM1756.80 249.42L1728.00 299.30L1785.60 299.30zM-57.60 299.30L0.00 299.30L-28.80 349.18zM115.20 299.30L86.40 349.18L144.00 349.18zM230.40 299.30L288.00 299.30L259.20 349.18zM345.60 299.30L403.20 299.30L374.40 349.18zM460.80 299.30L432.00 349.18L489.60 349.18zM460.80 299.30L518.40 299.30L489.60 349.18zM633.60 299.30L691.20 299.30L662.40 349.18zM806.40 299.30L777.60 349.18L835.20 349.18zM806.40 299.30L864.00 299.30L835.20 349.18zM1036.80 299.30L1008.00 349.18L1065.60 349.18zM1152.00 299.30L1209.60 299.30L1180.80 349.18zM1209.60 299.30L1267.20 299.30L1238.40 349.18zM-28.80 349.18L-57.60 399.06L0.00 399.06zM28.80 349.18L0.00 399.06L57.60 399.06zM28.80 349.18L86.40 349.18L57.60 399.06zM86.40 349.18L144.00 349.18L115.20 399.06zM144.00 349.18L115.20 399.06L172.80 399.06zM144.00 349.18L201.60 349.18L172.80 399.06zM259.20 349.18L230.40 399.06L288.00 399.06zM316.80 349.18L288.00 399.06L345.60 399.06zM374.40 349.18L432.00 349.18L403.20 399.06zM432.00 349.18L403.20 399.06L460.80 399.06zM432.00 349.18L489.60 349.18L460.80 399.06zM720.00 349.18L691.20 399.06L748.80 399.06zM-57.60 399.06L0.00 399.06L-28.80 448.95zM115.20 399.06L172.80 399.06L144.00 448.95zM345.60 399.06L316.80 448.95L374.40 448.95zM403.20 399.06L374.40 448.95L432.00 448.95zM576.00 399.06L633.60 399.06L604.80 448.95zM633.60 399.06L691.20 399.06L662.40 448.95zM1036.80 399.06L1094.40 399.06L1065.60 448.95zM1209.60 399.06L1180.80 448.95L1238.40 448.95zM1324.80 399.06L1382.40 399.06L1353.60 448.95zM-86.40 448.95L-28.80 448.95L-57.60 498.83zM-28.80 448.95L-57.60 498.83L0.00 498.83zM28.80 448.95L0.00 498.83L57.60 498.83zM201.60 448.95L172.80 498.83L230.40 498.83zM316.80 448.95L288.00 498.83L345.60 498.83zM489.60 448.95L547.20 448.95L518.40 498.83zM547.20 448.95L604.80 448.95L576.00 498.83zM604.80 448.95L662.40 448.95L633.60 498.83zM777.60 448.95L748.80 498.83L806.40 498.83zM1123.20 448.95L1180.80 448.95L1152.00 498.83zM1526.40 448.95L1584.00 448.95L1555.20 498.83zM-57.60 498.83L0.00 498.83L-28.80 548.71zM0.00 498.83L-28.80 548.71L28.80 548.71zM57.60 498.83L115.20 498.83L86.40 548.71zM115.20 498.83L172.80 498.83L144.00 548.71zM172.80 498.83L144.00 548.71L201.60 548.71zM518.40 498.83L489.60 548.71L547.20 548.71zM518.40 498.83L576.00 498.83L547.20 548.71zM633.60 498.83L604.80 548.71L662.40 548.71zM806.40 498.83L777.60 548.71L835.20 548.71zM806.40 498.83L864.00 498.83L835.20 548.71zM1267.20 498.83L1238.40 548.71L1296.00 548.71zM1324.80 498.83L1296.00 548.71L1353.60 548.71zM1497.60 498.83L1555.20 498.83L1526.40 548.71zM-86.40 548.71L-28.80 548.71L-57.60 598.60zM144.00 548.71L115.20 598.60L172.80 598.60zM374.40 548.71L345.60 598.60L403.20 598.60zM374.40 548.71L432.00 548.71L403.20 598.60zM432.00 548.71L403.20 598.60L460.80 598.60zM662.40 548.71L633.60 598.60L691.20 598.60zM892.80 548.71L950.40 548.71L921.60 598.60zM0.00 598.60L-28.80 648.48L28.80 648.48zM57.60 598.60L28.80 648.48L86.40 648.48zM115.20 598.60L86.40 648.48L144.00 648.48zM460.80 598.60L518.40 598.60L489.60 648.48zM518.40 598.60L576.00 598.60L547.20 648.48zM1094.40 598.60L1152.00 598.60L1123.20 648.48zM1152.00 598.60L1209.60 598.60L1180.80 648.48zM1440.00 598.60L1497.60 598.60L1468.80 648.48zM-28.80 648.48L28.80 648.48L0.00 698.36zM28.80 648.48L86.40 648.48L57.60 698.36zM144.00 648.48L201.60 648.48L172.80 698.36zM316.80 648.48L374.40 648.48L345.60 698.36zM1008.00 648.48L979.20 698.36L1036.80 698.36zM-57.60 698.36L0.00 698.36L-28.80 748.25zM57.60 698.36L28.80 748.25L86.40 748.25zM288.00 698.36L259.20 748.25L316.80 748.25zM576.00 698.36L633.60 698.36L604.80 748.25zM633.60 698.36L691.20 698.36L662.40 748.25zM748.80 698.36L720.00 748.25L777.60 748.25zM-28.80 748.25L-57.60 798.13L0.00 798.13zM86.40 748.25L57.60 798.13L115.20 798.13zM86.40 748.25L144.00 748.25L115.20 798.13zM144.00 748.25L201.60 748.25L172.80 798.13zM201.60 748.25L259.20 748.25L230.40 798.13zM316.80 748.25L374.40 748.25L345.60 798.13zM432.00 748.25L403.20 798.13L460.80 798.13zM489.60 748.25L547.20 748.25L518.40 798.13zM547.20 748.25L518.40 798.13L576.00 798.13zM950.40 748.25L921.60 798.13L979.20 798.13zM0.00 798.13L57.60 798.13L28.80 848.01zM1267.20 798.13L1238.40 848.01L1296.00 848.01zM144.00 848.01L115.20 897.90L172.80 897.90zM316.80 848.01L288.00 897.90L345.60 897.90zM547.20 848.01L518.40 897.90L576.00 897.90zM835.20 848.01L892.80 848.01L864.00 897.90zM-57.60 897.90L0.00 897.90L-28.80 947.78zM0.00 897.90L57.60 897.90L28.80 947.78zM1094.40 897.90L1065.60 947.78L1123.20 947.78z" style="fill:rgb(12, 56, 102);;animation:none"></path>
<path fill="rgb(0, 73, 118)" d="M1411.20 49.88L1468.80 49.88L1440.00 99.77zM288.00 99.77L345.60 99.77L316.80 149.65zM576.00 199.53L633.60 199.53L604.80 249.42zM1296.00 249.42L1267.20 299.30L1324.80 299.30zM288.00 399.06L259.20 448.95L316.80 448.95zM1267.20 399.06L1238.40 448.95L1296.00 448.95zM1209.60 498.83L1180.80 548.71L1238.40 548.71zM489.60 548.71L460.80 598.60L518.40 598.60zM1008.00 548.71L979.20 598.60L1036.80 598.60zM230.40 598.60L201.60 648.48L259.20 648.48zM518.40 798.13L489.60 848.01L547.20 848.01zM1440.00 798.13L1411.20 848.01L1468.80 848.01zM144.00 848.01L201.60 848.01L172.80 897.90zM316.80 848.01L374.40 848.01L345.60 897.90zM432.00 848.01L489.60 848.01L460.80 897.90zM777.60 848.01L748.80 897.90L806.40 897.90zM172.80 897.90L230.40 897.90L201.60 947.78zM864.00 897.90L835.20 947.78L892.80 947.78z" style="fill:rgb(0, 73, 118);;animation:none"></path>
<path fill="rgb(1, 70, 115)" d="M1065.60 49.88L1036.80 99.77L1094.40 99.77zM633.60 99.77L604.80 149.65L662.40 149.65zM1123.20 448.95L1094.40 498.83L1152.00 498.83zM691.20 498.83L748.80 498.83L720.00 548.71zM633.60 598.60L604.80 648.48L662.40 648.48zM316.80 748.25L288.00 798.13L345.60 798.13zM662.40 748.25L633.60 798.13L691.20 798.13zM748.80 798.13L720.00 848.01L777.60 848.01zM864.00 798.13L921.60 798.13L892.80 848.01zM201.60 848.01L172.80 897.90L230.40 897.90zM201.60 848.01L259.20 848.01L230.40 897.90zM1152.00 897.90L1123.20 947.78L1180.80 947.78z" style="fill:rgb(1, 70, 115);;animation:none"></path>
<path fill="rgb(0, 81, 124)" d="M633.60 0.00L604.80 49.88L662.40 49.88zM720.00 49.88L777.60 49.88L748.80 99.77zM1641.60 49.88L1699.20 49.88L1670.40 99.77zM1785.60 99.77L1756.80 149.65L1814.40 149.65zM1123.20 149.65L1094.40 199.53L1152.00 199.53zM403.20 199.53L374.40 249.42L432.00 249.42zM1785.60 199.53L1843.20 199.53L1814.40 249.42zM979.20 299.30L1036.80 299.30L1008.00 349.18zM1180.80 349.18L1238.40 349.18L1209.60 399.06zM777.60 448.95L835.20 448.95L806.40 498.83zM1555.20 498.83L1612.80 498.83L1584.00 548.71zM230.40 598.60L288.00 598.60L259.20 648.48zM576.00 598.60L547.20 648.48L604.80 648.48zM1152.00 598.60L1123.20 648.48L1180.80 648.48zM1123.20 648.48L1094.40 698.36L1152.00 698.36zM1641.60 648.48L1612.80 698.36L1670.40 698.36zM1353.60 848.01L1324.80 897.90L1382.40 897.90zM518.40 897.90L576.00 897.90L547.20 947.78zM921.60 897.90L979.20 897.90L950.40 947.78z" style="fill:rgb(0, 81, 124);;animation:none"></path>
<path fill="rgb(0, 96, 137)" d="M1497.60 0.00L1468.80 49.88L1526.40 49.88zM1756.80 49.88L1728.00 99.77L1785.60 99.77zM1152.00 99.77L1209.60 99.77L1180.80 149.65zM1065.60 149.65L1123.20 149.65L1094.40 199.53zM460.80 199.53L518.40 199.53L489.60 249.42zM1180.80 249.42L1238.40 249.42L1209.60 299.30zM1526.40 249.42L1497.60 299.30L1555.20 299.30zM1036.80 299.30L1094.40 299.30L1065.60 349.18zM691.20 399.06L662.40 448.95L720.00 448.95zM1468.80 548.71L1526.40 548.71L1497.60 598.60zM777.60 648.48L748.80 698.36L806.40 698.36zM57.60 698.36L115.20 698.36L86.40 748.25zM1152.00 698.36L1123.20 748.25L1180.80 748.25zM345.60 798.13L316.80 848.01L374.40 848.01zM460.80 798.13L518.40 798.13L489.60 848.01zM1670.40 798.13L1641.60 848.01L1699.20 848.01z" style="fill:rgb(0, 96, 137);;animation:none"></path>
<path fill="rgb(0, 94, 135)" d="M748.80 0.00L720.00 49.88L777.60 49.88zM835.20 49.88L806.40 99.77L864.00 99.77zM1612.80 199.53L1584.00 249.42L1641.60 249.42zM1785.60 199.53L1756.80 249.42L1814.40 249.42zM1008.00 249.42L1065.60 249.42L1036.80 299.30zM1353.60 249.42L1411.20 249.42L1382.40 299.30zM1872.00 249.42L1843.20 299.30L1900.80 299.30zM1353.60 349.18L1324.80 399.06L1382.40 399.06zM921.60 498.83L979.20 498.83L950.40 548.71zM1497.60 498.83L1468.80 548.71L1526.40 548.71zM403.20 598.60L374.40 648.48L432.00 648.48zM748.80 598.60L806.40 598.60L777.60 648.48zM0.00 698.36L57.60 698.36L28.80 748.25zM1267.20 698.36L1324.80 698.36L1296.00 748.25zM1324.80 798.13L1382.40 798.13L1353.60 848.01zM288.00 897.90L345.60 897.90L316.80 947.78zM518.40 897.90L489.60 947.78L547.20 947.78z" style="fill:rgb(0, 94, 135);;animation:none"></path>
<path fill="rgb(0, 123, 154)" d="M1440.00 0.00L1411.20 49.88L1468.80 49.88zM1872.00 49.88L1929.60 49.88L1900.80 99.77zM1411.20 149.65L1382.40 199.53L1440.00 199.53zM259.20 249.42L230.40 299.30L288.00 299.30zM950.40 249.42L921.60 299.30L979.20 299.30zM1238.40 249.42L1209.60 299.30L1267.20 299.30zM921.60 299.30L979.20 299.30L950.40 349.18zM1267.20 299.30L1324.80 299.30L1296.00 349.18zM921.60 399.06L979.20 399.06L950.40 448.95zM1094.40 399.06L1152.00 399.06L1123.20 448.95zM432.00 448.95L403.20 498.83L460.80 498.83zM1065.60 448.95L1123.20 448.95L1094.40 498.83zM1411.20 548.71L1468.80 548.71L1440.00 598.60zM1641.60 548.71L1612.80 598.60L1670.40 598.60zM1238.40 648.48L1296.00 648.48L1267.20 698.36zM1152.00 698.36L1209.60 698.36L1180.80 748.25zM892.80 748.25L950.40 748.25L921.60 798.13zM864.00 798.13L835.20 848.01L892.80 848.01zM1584.00 848.01L1555.20 897.90L1612.80 897.90z" style="fill:rgb(0, 123, 154);;animation:none"></path>
<path fill="rgb(0, 116, 150)" d="M806.40 199.53L864.00 199.53L835.20 249.42zM1670.40 199.53L1728.00 199.53L1699.20 249.42zM892.80 249.42L950.40 249.42L921.60 299.30zM1353.60 249.42L1324.80 299.30L1382.40 299.30zM1872.00 349.18L1929.60 349.18L1900.80 399.06zM979.20 399.06L950.40 448.95L1008.00 448.95zM1814.40 448.95L1785.60 498.83L1843.20 498.83zM1267.20 498.83L1324.80 498.83L1296.00 548.71zM1612.80 498.83L1670.40 498.83L1641.60 548.71zM748.80 598.60L720.00 648.48L777.60 648.48zM1296.00 648.48L1267.20 698.36L1324.80 698.36zM288.00 698.36L345.60 698.36L316.80 748.25zM979.20 798.13L950.40 848.01L1008.00 848.01zM1267.20 798.13L1324.80 798.13L1296.00 848.01zM576.00 897.90L547.20 947.78L604.80 947.78zM691.20 897.90L748.80 897.90L720.00 947.78z" style="fill:rgb(0, 116, 150);;animation:none"></path>
<path fill="rgb(0, 123, 154)" d="M1411.20 49.88L1382.40 99.77L1440.00 99.77zM1209.60 99.77L1267.20 99.77L1238.40 149.65zM777.60 149.65L748.80 199.53L806.40 199.53zM1267.20 199.53L1324.80 199.53L1296.00 249.42zM864.00 299.30L921.60 299.30L892.80 349.18zM1440.00 299.30L1497.60 299.30L1468.80 349.18zM1555.20 299.30L1526.40 349.18L1584.00 349.18zM1152.00 399.06L1123.20 448.95L1180.80 448.95zM403.20 698.36L374.40 748.25L432.00 748.25zM1440.00 698.36L1497.60 698.36L1468.80 748.25zM374.40 748.25L432.00 748.25L403.20 798.13zM777.60 748.25L835.20 748.25L806.40 798.13zM892.80 748.25L864.00 798.13L921.60 798.13zM748.80 798.13L806.40 798.13L777.60 848.01zM604.80 848.01L576.00 897.90L633.60 897.90zM720.00 848.01L691.20 897.90L748.80 897.90zM1555.20 897.90L1526.40 947.78L1584.00 947.78z" style="fill:rgb(0, 123, 154);;animation:none"></path>
<path fill="rgb(10, 153, 169)" d="M1238.40 49.88L1296.00 49.88L1267.20 99.77zM1584.00 49.88L1555.20 99.77L1612.80 99.77zM1555.20 99.77L1526.40 149.65L1584.00 149.65zM1526.40 149.65L1497.60 199.53L1555.20 199.53zM1756.80 349.18L1728.00 399.06L1785.60 399.06zM0.00 598.60L57.60 598.60L28.80 648.48zM1267.20 598.60L1324.80 598.60L1296.00 648.48zM547.20 648.48L518.40 698.36L576.00 698.36zM1324.80 698.36L1382.40 698.36L1353.60 748.25zM1641.60 748.25L1612.80 798.13L1670.40 798.13zM1094.40 798.13L1065.60 848.01L1123.20 848.01zM1382.40 897.90L1353.60 947.78L1411.20 947.78z" style="fill:rgb(10, 153, 169);;animation:none"></path>
<path fill="rgb(0, 147, 166)" d="M1411.20 249.42L1468.80 249.42L1440.00 299.30zM1641.60 249.42L1699.20 249.42L1670.40 299.30zM1612.80 299.30L1584.00 349.18L1641.60 349.18zM1728.00 299.30L1785.60 299.30L1756.80 349.18zM1958.40 299.30L1929.60 349.18L1987.20 349.18zM892.80 548.71L864.00 598.60L921.60 598.60zM864.00 598.60L835.20 648.48L892.80 648.48zM1843.20 598.60L1814.40 648.48L1872.00 648.48z" style="fill:rgb(0, 147, 166);;animation:none"></path>
<path fill="rgb(34, 166, 174)" d="M1670.40 0.00L1641.60 49.88L1699.20 49.88zM1872.00 249.42L1929.60 249.42L1900.80 299.30zM1497.60 399.06L1555.20 399.06L1526.40 448.95zM1353.60 448.95L1411.20 448.95L1382.40 498.83zM1411.20 448.95L1468.80 448.95L1440.00 498.83zM28.80 548.71L0.00 598.60L57.60 598.60zM777.60 548.71L835.20 548.71L806.40 598.60zM979.20 698.36L950.40 748.25L1008.00 748.25zM1785.60 698.36L1843.20 698.36L1814.40 748.25zM835.20 848.01L806.40 897.90L864.00 897.90z" style="fill:rgb(34, 166, 174);;animation:none"></path>
<path fill="rgb(53, 178, 178)" d="M1209.60 199.53L1180.80 249.42L1238.40 249.42zM1180.80 349.18L1152.00 399.06L1209.60 399.06zM1872.00 448.95L1929.60 448.95L1900.80 498.83zM1468.80 548.71L1440.00 598.60L1497.60 598.60zM518.40 598.60L489.60 648.48L547.20 648.48zM576.00 598.60L633.60 598.60L604.80 648.48zM1497.60 598.60L1555.20 598.60L1526.40 648.48zM835.20 648.48L806.40 698.36L864.00 698.36zM950.40 648.48L921.60 698.36L979.20 698.36zM1180.80 648.48L1238.40 648.48L1209.60 698.36zM1209.60 698.36L1267.20 698.36L1238.40 748.25zM1353.60 748.25L1324.80 798.13L1382.40 798.13zM1411.20 748.25L1468.80 748.25L1440.00 798.13zM1584.00 748.25L1555.20 798.13L1612.80 798.13zM1785.60 798.13L1756.80 848.01L1814.40 848.01zM489.60 848.01L460.80 897.90L518.40 897.90zM1180.80 848.01L1238.40 848.01L1209.60 897.90zM1267.20 897.90L1324.80 897.90L1296.00 947.78z" style="fill:rgb(53, 178, 178);;animation:none"></path>
<path fill="rgb(65, 187, 180)" d="M1900.80 99.77L1958.40 99.77L1929.60 149.65zM1958.40 99.77L1929.60 149.65L1987.20 149.65zM1209.60 299.30L1180.80 349.18L1238.40 349.18zM1296.00 349.18L1267.20 399.06L1324.80 399.06zM1584.00 448.95L1555.20 498.83L1612.80 498.83zM1641.60 448.95L1699.20 448.95L1670.40 498.83zM1872.00 448.95L1843.20 498.83L1900.80 498.83zM1440.00 498.83L1497.60 498.83L1468.80 548.71zM1612.80 498.83L1584.00 548.71L1641.60 548.71zM1900.80 498.83L1872.00 548.71L1929.60 548.71zM1900.80 498.83L1958.40 498.83L1929.60 548.71zM1296.00 648.48L1353.60 648.48L1324.80 698.36zM1584.00 648.48L1555.20 698.36L1612.80 698.36zM518.40 698.36L489.60 748.25L547.20 748.25zM1180.80 848.01L1152.00 897.90L1209.60 897.90zM1468.80 848.01L1526.40 848.01L1497.60 897.90z" style="fill:rgb(65, 187, 180);;animation:none"></path>
<path fill="rgb(73, 192, 182)" d="M864.00 0.00L835.20 49.88L892.80 49.88zM1555.20 0.00L1526.40 49.88L1584.00 49.88zM1785.60 0.00L1756.80 49.88L1814.40 49.88zM1958.40 0.00L1929.60 49.88L1987.20 49.88zM1584.00 49.88L1641.60 49.88L1612.80 99.77zM1641.60 49.88L1612.80 99.77L1670.40 99.77zM1814.40 49.88L1872.00 49.88L1843.20 99.77zM1728.00 99.77L1699.20 149.65L1756.80 149.65zM1728.00 99.77L1785.60 99.77L1756.80 149.65zM1008.00 149.65L1065.60 149.65L1036.80 199.53zM1584.00 149.65L1641.60 149.65L1612.80 199.53zM1440.00 199.53L1411.20 249.42L1468.80 249.42zM1324.80 299.30L1296.00 349.18L1353.60 349.18zM1728.00 299.30L1699.20 349.18L1756.80 349.18zM1785.60 299.30L1756.80 349.18L1814.40 349.18zM1584.00 349.18L1555.20 399.06L1612.80 399.06zM1872.00 349.18L1843.20 399.06L1900.80 399.06zM1929.60 349.18L1900.80 399.06L1958.40 399.06zM460.80 399.06L432.00 448.95L489.60 448.95zM576.00 399.06L547.20 448.95L604.80 448.95zM1382.40 399.06L1440.00 399.06L1411.20 448.95zM1497.60 399.06L1468.80 448.95L1526.40 448.95zM1728.00 399.06L1699.20 448.95L1756.80 448.95zM1785.60 399.06L1756.80 448.95L1814.40 448.95zM892.80 448.95L950.40 448.95L921.60 498.83zM1296.00 448.95L1353.60 448.95L1324.80 498.83zM1411.20 448.95L1382.40 498.83L1440.00 498.83zM1468.80 448.95L1526.40 448.95L1497.60 498.83zM1756.80 448.95L1728.00 498.83L1785.60 498.83zM1785.60 498.83L1756.80 548.71L1814.40 548.71zM835.20 548.71L892.80 548.71L864.00 598.60zM1065.60 548.71L1036.80 598.60L1094.40 598.60zM1123.20 548.71L1180.80 548.71L1152.00 598.60zM1296.00 548.71L1353.60 548.71L1324.80 598.60zM1814.40 548.71L1872.00 548.71L1843.20 598.60zM1324.80 598.60L1296.00 648.48L1353.60 648.48zM1555.20 598.60L1526.40 648.48L1584.00 648.48zM1843.20 598.60L1900.80 598.60L1872.00 648.48zM1900.80 598.60L1958.40 598.60L1929.60 648.48zM547.20 648.48L604.80 648.48L576.00 698.36zM1353.60 648.48L1324.80 698.36L1382.40 698.36zM1411.20 648.48L1468.80 648.48L1440.00 698.36zM1468.80 648.48L1440.00 698.36L1497.60 698.36zM1584.00 648.48L1641.60 648.48L1612.80 698.36zM1814.40 648.48L1872.00 648.48L1843.20 698.36zM864.00 698.36L921.60 698.36L892.80 748.25zM1324.80 698.36L1296.00 748.25L1353.60 748.25zM1440.00 698.36L1411.20 748.25L1468.80 748.25zM1497.60 698.36L1468.80 748.25L1526.40 748.25zM1497.60 698.36L1555.20 698.36L1526.40 748.25zM1555.20 698.36L1526.40 748.25L1584.00 748.25zM1728.00 698.36L1785.60 698.36L1756.80 748.25zM1785.60 698.36L1756.80 748.25L1814.40 748.25zM1900.80 698.36L1958.40 698.36L1929.60 748.25zM777.60 748.25L748.80 798.13L806.40 798.13zM1180.80 748.25L1152.00 798.13L1209.60 798.13zM1238.40 748.25L1296.00 748.25L1267.20 798.13zM1468.80 748.25L1440.00 798.13L1497.60 798.13zM1641.60 748.25L1699.20 748.25L1670.40 798.13zM1814.40 748.25L1785.60 798.13L1843.20 798.13zM1814.40 748.25L1872.00 748.25L1843.20 798.13zM1929.60 748.25L1900.80 798.13L1958.40 798.13zM806.40 798.13L864.00 798.13L835.20 848.01zM921.60 798.13L892.80 848.01L950.40 848.01zM921.60 798.13L979.20 798.13L950.40 848.01zM1036.80 798.13L1094.40 798.13L1065.60 848.01zM1209.60 798.13L1180.80 848.01L1238.40 848.01zM1382.40 798.13L1353.60 848.01L1411.20 848.01zM1555.20 798.13L1612.80 798.13L1584.00 848.01zM1612.80 798.13L1670.40 798.13L1641.60 848.01zM1900.80 798.13L1958.40 798.13L1929.60 848.01zM-28.80 848.01L28.80 848.01L0.00 897.90zM950.40 848.01L1008.00 848.01L979.20 897.90zM1238.40 848.01L1296.00 848.01L1267.20 897.90zM1699.20 848.01L1756.80 848.01L1728.00 897.90zM1872.00 848.01L1843.20 897.90L1900.80 897.90zM806.40 897.90L777.60 947.78L835.20 947.78zM806.40 897.90L864.00 897.90L835.20 947.78zM1036.80 897.90L1094.40 897.90L1065.60 947.78zM1209.60 897.90L1180.80 947.78L1238.40 947.78zM1324.80 897.90L1296.00 947.78L1353.60 947.78zM1728.00 897.90L1699.20 947.78L1756.80 947.78zM1785.60 897.90L1756.80 947.78L1814.40 947.78zM1785.60 897.90L1843.20 897.90L1814.40 947.78zM1843.20 897.90L1814.40 947.78L1872.00 947.78zM1900.80 897.90L1958.40 897.90L1929.60 947.78z" style="fill:rgb(73, 192, 182);;animation:none"></path>
<path fill="rgb(7, 63, 108)" d="M115.20 0.00L86.40 49.88L144.00 49.88zM115.20 0.00L172.80 0.00L144.00 49.88zM172.80 0.00L230.40 0.00L201.60 49.88zM288.00 0.00L345.60 0.00L316.80 49.88zM345.60 0.00L316.80 49.88L374.40 49.88zM403.20 0.00L374.40 49.88L432.00 49.88zM403.20 0.00L460.80 0.00L432.00 49.88zM460.80 0.00L432.00 49.88L489.60 49.88zM460.80 0.00L518.40 0.00L489.60 49.88zM518.40 0.00L576.00 0.00L547.20 49.88zM691.20 0.00L748.80 0.00L720.00 49.88zM921.60 0.00L892.80 49.88L950.40 49.88zM921.60 0.00L979.20 0.00L950.40 49.88zM979.20 0.00L1036.80 0.00L1008.00 49.88zM1036.80 0.00L1008.00 49.88L1065.60 49.88zM1209.60 0.00L1180.80 49.88L1238.40 49.88zM1267.20 0.00L1238.40 49.88L1296.00 49.88zM1324.80 0.00L1296.00 49.88L1353.60 49.88zM1440.00 0.00L1497.60 0.00L1468.80 49.88zM1728.00 0.00L1699.20 49.88L1756.80 49.88zM144.00 49.88L115.20 99.77L172.80 99.77zM144.00 49.88L201.60 49.88L172.80 99.77zM259.20 49.88L230.40 99.77L288.00 99.77zM259.20 49.88L316.80 49.88L288.00 99.77zM374.40 49.88L432.00 49.88L403.20 99.77zM662.40 49.88L720.00 49.88L691.20 99.77zM892.80 49.88L950.40 49.88L921.60 99.77zM950.40 49.88L1008.00 49.88L979.20 99.77zM1008.00 49.88L979.20 99.77L1036.80 99.77zM1123.20 49.88L1094.40 99.77L1152.00 99.77zM-57.60 99.77L0.00 99.77L-28.80 149.65zM0.00 99.77L57.60 99.77L28.80 149.65zM57.60 99.77L28.80 149.65L86.40 149.65zM172.80 99.77L144.00 149.65L201.60 149.65zM230.40 99.77L288.00 99.77L259.20 149.65zM403.20 99.77L460.80 99.77L432.00 149.65zM460.80 99.77L432.00 149.65L489.60 149.65zM518.40 99.77L576.00 99.77L547.20 149.65zM691.20 99.77L748.80 99.77L720.00 149.65zM979.20 99.77L950.40 149.65L1008.00 149.65zM1036.80 99.77L1008.00 149.65L1065.60 149.65zM1036.80 99.77L1094.40 99.77L1065.60 149.65zM1094.40 99.77L1152.00 99.77L1123.20 149.65zM1382.40 99.77L1353.60 149.65L1411.20 149.65zM1382.40 99.77L1440.00 99.77L1411.20 149.65zM28.80 149.65L0.00 199.53L57.60 199.53zM86.40 149.65L57.60 199.53L115.20 199.53zM144.00 149.65L115.20 199.53L172.80 199.53zM201.60 149.65L259.20 149.65L230.40 199.53zM259.20 149.65L230.40 199.53L288.00 199.53zM316.80 149.65L374.40 149.65L345.60 199.53zM374.40 149.65L345.60 199.53L403.20 199.53zM432.00 149.65L489.60 149.65L460.80 199.53zM547.20 149.65L604.80 149.65L576.00 199.53zM604.80 149.65L576.00 199.53L633.60 199.53zM835.20 149.65L806.40 199.53L864.00 199.53zM892.80 149.65L950.40 149.65L921.60 199.53zM950.40 149.65L921.60 199.53L979.20 199.53zM950.40 149.65L1008.00 149.65L979.20 199.53zM1123.20 149.65L1180.80 149.65L1152.00 199.53zM1238.40 149.65L1209.60 199.53L1267.20 199.53zM1296.00 149.65L1353.60 149.65L1324.80 199.53zM1526.40 149.65L1584.00 149.65L1555.20 199.53zM1872.00 149.65L1929.60 149.65L1900.80 199.53zM172.80 199.53L230.40 199.53L201.60 249.42zM230.40 199.53L201.60 249.42L259.20 249.42zM345.60 199.53L316.80 249.42L374.40 249.42zM518.40 199.53L489.60 249.42L547.20 249.42zM691.20 199.53L662.40 249.42L720.00 249.42zM864.00 199.53L921.60 199.53L892.80 249.42zM979.20 199.53L950.40 249.42L1008.00 249.42zM1094.40 199.53L1065.60 249.42L1123.20 249.42zM1152.00 199.53L1123.20 249.42L1180.80 249.42zM1209.60 199.53L1267.20 199.53L1238.40 249.42zM1324.80 199.53L1296.00 249.42L1353.60 249.42zM1440.00 199.53L1497.60 199.53L1468.80 249.42zM1612.80 199.53L1670.40 199.53L1641.60 249.42zM1958.40 199.53L1929.60 249.42L1987.20 249.42zM-86.40 249.42L-28.80 249.42L-57.60 299.30zM201.60 249.42L172.80 299.30L230.40 299.30zM201.60 249.42L259.20 249.42L230.40 299.30zM432.00 249.42L403.20 299.30L460.80 299.30zM432.00 249.42L489.60 249.42L460.80 299.30zM489.60 249.42L460.80 299.30L518.40 299.30zM547.20 249.42L604.80 249.42L576.00 299.30zM662.40 249.42L720.00 249.42L691.20 299.30zM720.00 249.42L777.60 249.42L748.80 299.30zM835.20 249.42L892.80 249.42L864.00 299.30zM1065.60 249.42L1123.20 249.42L1094.40 299.30zM1929.60 249.42L1900.80 299.30L1958.40 299.30zM115.20 299.30L172.80 299.30L144.00 349.18zM172.80 299.30L144.00 349.18L201.60 349.18zM172.80 299.30L230.40 299.30L201.60 349.18zM230.40 299.30L201.60 349.18L259.20 349.18zM979.20 299.30L950.40 349.18L1008.00 349.18zM-86.40 349.18L-28.80 349.18L-57.60 399.06zM-28.80 349.18L28.80 349.18L0.00 399.06zM86.40 349.18L57.60 399.06L115.20 399.06zM201.60 349.18L172.80 399.06L230.40 399.06zM374.40 349.18L345.60 399.06L403.20 399.06zM489.60 349.18L460.80 399.06L518.40 399.06zM489.60 349.18L547.20 349.18L518.40 399.06zM547.20 349.18L518.40 399.06L576.00 399.06zM604.80 349.18L576.00 399.06L633.60 399.06zM604.80 349.18L662.40 349.18L633.60 399.06zM662.40 349.18L633.60 399.06L691.20 399.06zM835.20 349.18L892.80 349.18L864.00 399.06zM892.80 349.18L864.00 399.06L921.60 399.06zM1065.60 349.18L1036.80 399.06L1094.40 399.06zM1123.20 349.18L1180.80 349.18L1152.00 399.06zM1814.40 349.18L1785.60 399.06L1843.20 399.06zM0.00 399.06L57.60 399.06L28.80 448.95zM57.60 399.06L28.80 448.95L86.40 448.95zM57.60 399.06L115.20 399.06L86.40 448.95zM115.20 399.06L86.40 448.95L144.00 448.95zM230.40 399.06L201.60 448.95L259.20 448.95zM288.00 399.06L345.60 399.06L316.80 448.95zM345.60 399.06L403.20 399.06L374.40 448.95zM518.40 399.06L489.60 448.95L547.20 448.95zM748.80 399.06L720.00 448.95L777.60 448.95zM1094.40 399.06L1065.60 448.95L1123.20 448.95zM1152.00 399.06L1209.60 399.06L1180.80 448.95zM1324.80 399.06L1296.00 448.95L1353.60 448.95zM-28.80 448.95L28.80 448.95L0.00 498.83zM86.40 448.95L57.60 498.83L115.20 498.83zM144.00 448.95L115.20 498.83L172.80 498.83zM316.80 448.95L374.40 448.95L345.60 498.83zM662.40 448.95L633.60 498.83L691.20 498.83zM950.40 448.95L921.60 498.83L979.20 498.83zM1008.00 448.95L1065.60 448.95L1036.80 498.83zM1238.40 448.95L1296.00 448.95L1267.20 498.83zM57.60 498.83L28.80 548.71L86.40 548.71zM172.80 498.83L230.40 498.83L201.60 548.71zM288.00 498.83L259.20 548.71L316.80 548.71zM345.60 498.83L316.80 548.71L374.40 548.71zM403.20 498.83L374.40 548.71L432.00 548.71zM576.00 498.83L547.20 548.71L604.80 548.71zM748.80 498.83L720.00 548.71L777.60 548.71zM1036.80 498.83L1008.00 548.71L1065.60 548.71zM1382.40 498.83L1440.00 498.83L1411.20 548.71zM-28.80 548.71L-57.60 598.60L0.00 598.60zM28.80 548.71L86.40 548.71L57.60 598.60zM86.40 548.71L57.60 598.60L115.20 598.60zM86.40 548.71L144.00 548.71L115.20 598.60zM259.20 548.71L230.40 598.60L288.00 598.60zM259.20 548.71L316.80 548.71L288.00 598.60zM489.60 548.71L547.20 548.71L518.40 598.60zM720.00 548.71L691.20 598.60L748.80 598.60zM1411.20 548.71L1382.40 598.60L1440.00 598.60zM-57.60 598.60L0.00 598.60L-28.80 648.48zM115.20 598.60L172.80 598.60L144.00 648.48zM172.80 598.60L144.00 648.48L201.60 648.48zM288.00 598.60L345.60 598.60L316.80 648.48zM345.60 598.60L316.80 648.48L374.40 648.48zM806.40 598.60L864.00 598.60L835.20 648.48zM921.60 598.60L892.80 648.48L950.40 648.48zM921.60 598.60L979.20 598.60L950.40 648.48zM979.20 598.60L1036.80 598.60L1008.00 648.48zM1612.80 598.60L1670.40 598.60L1641.60 648.48zM-86.40 648.48L-28.80 648.48L-57.60 698.36zM28.80 648.48L0.00 698.36L57.60 698.36zM86.40 648.48L144.00 648.48L115.20 698.36zM144.00 648.48L115.20 698.36L172.80 698.36zM201.60 648.48L259.20 648.48L230.40 698.36zM259.20 648.48L230.40 698.36L288.00 698.36zM316.80 648.48L288.00 698.36L345.60 698.36zM489.60 648.48L460.80 698.36L518.40 698.36zM489.60 648.48L547.20 648.48L518.40 698.36zM115.20 698.36L86.40 748.25L144.00 748.25zM460.80 698.36L432.00 748.25L489.60 748.25zM460.80 698.36L518.40 698.36L489.60 748.25zM864.00 698.36L835.20 748.25L892.80 748.25zM-28.80 748.25L28.80 748.25L0.00 798.13zM0.00 798.13L-28.80 848.01L28.80 848.01zM57.60 798.13L115.20 798.13L86.40 848.01zM345.60 798.13L403.20 798.13L374.40 848.01zM28.80 848.01L0.00 897.90L57.60 897.90zM259.20 848.01L230.40 897.90L288.00 897.90zM374.40 848.01L432.00 848.01L403.20 897.90zM0.00 897.90L-28.80 947.78L28.80 947.78zM115.20 897.90L172.80 897.90L144.00 947.78zM172.80 897.90L144.00 947.78L201.60 947.78z" style="fill:rgb(7, 63, 108);;animation:none"></path>
<path fill="rgb(7, 62, 108)" d="M1843.20 99.77L1900.80 99.77L1872.00 149.65zM403.20 199.53L460.80 199.53L432.00 249.42zM748.80 299.30L720.00 349.18L777.60 349.18zM1440.00 299.30L1411.20 349.18L1468.80 349.18zM86.40 448.95L144.00 448.95L115.20 498.83zM144.00 448.95L201.60 448.95L172.80 498.83zM662.40 448.95L720.00 448.95L691.20 498.83zM1008.00 448.95L979.20 498.83L1036.80 498.83zM1180.80 448.95L1152.00 498.83L1209.60 498.83zM460.80 498.83L518.40 498.83L489.60 548.71zM1094.40 498.83L1152.00 498.83L1123.20 548.71zM691.20 598.60L748.80 598.60L720.00 648.48zM1497.60 598.60L1468.80 648.48L1526.40 648.48zM892.80 648.48L950.40 648.48L921.60 698.36zM489.60 748.25L460.80 798.13L518.40 798.13zM950.40 748.25L1008.00 748.25L979.20 798.13zM288.00 897.90L259.20 947.78L316.80 947.78z" style="fill:rgb(7, 62, 108);;animation:none"></path>
<path fill="rgb(0, 81, 125)" d="M1324.80 0.00L1382.40 0.00L1353.60 49.88zM1900.80 0.00L1872.00 49.88L1929.60 49.88zM835.20 149.65L892.80 149.65L864.00 199.53zM835.20 249.42L806.40 299.30L864.00 299.30zM1468.80 249.42L1440.00 299.30L1497.60 299.30zM864.00 598.60L921.60 598.60L892.80 648.48zM1468.80 648.48L1526.40 648.48L1497.60 698.36zM28.80 748.25L86.40 748.25L57.60 798.13zM1209.60 798.13L1267.20 798.13L1238.40 848.01zM230.40 897.90L288.00 897.90L259.20 947.78zM691.20 897.90L662.40 947.78L720.00 947.78z" style="fill:rgb(0, 81, 125);;animation:none"></path>
<path fill="rgb(0, 88, 131)" d="M1152.00 0.00L1209.60 0.00L1180.80 49.88zM1267.20 0.00L1324.80 0.00L1296.00 49.88zM1180.80 49.88L1152.00 99.77L1209.60 99.77zM1324.80 99.77L1382.40 99.77L1353.60 149.65zM1670.40 99.77L1728.00 99.77L1699.20 149.65zM1065.60 149.65L1036.80 199.53L1094.40 199.53zM1353.60 149.65L1324.80 199.53L1382.40 199.53zM921.60 199.53L979.20 199.53L950.40 249.42zM576.00 299.30L547.20 349.18L604.80 349.18zM1699.20 349.18L1756.80 349.18L1728.00 399.06zM748.80 399.06L806.40 399.06L777.60 448.95zM806.40 399.06L864.00 399.06L835.20 448.95zM1728.00 399.06L1785.60 399.06L1756.80 448.95zM662.40 548.71L720.00 548.71L691.20 598.60zM201.60 648.48L172.80 698.36L230.40 698.36zM230.40 798.13L201.60 848.01L259.20 848.01zM633.60 798.13L691.20 798.13L662.40 848.01zM259.20 848.01L316.80 848.01L288.00 897.90zM748.80 897.90L806.40 897.90L777.60 947.78z" style="fill:rgb(0, 88, 131);;animation:none"></path>
<path fill="rgb(0, 90, 132)" d="M1555.20 0.00L1612.80 0.00L1584.00 49.88zM1670.40 0.00L1728.00 0.00L1699.20 49.88zM460.80 99.77L518.40 99.77L489.60 149.65zM1036.80 199.53L1094.40 199.53L1065.60 249.42zM1699.20 249.42L1670.40 299.30L1728.00 299.30zM691.20 299.30L662.40 349.18L720.00 349.18zM1152.00 299.30L1123.20 349.18L1180.80 349.18zM547.20 448.95L518.40 498.83L576.00 498.83zM172.80 598.60L230.40 598.60L201.60 648.48zM576.00 698.36L547.20 748.25L604.80 748.25zM921.60 698.36L892.80 748.25L950.40 748.25zM57.60 798.13L28.80 848.01L86.40 848.01zM1411.20 848.01L1468.80 848.01L1440.00 897.90z" style="fill:rgb(0, 90, 132);;animation:none"></path>
<path fill="rgb(0, 96, 136)" d="M1440.00 99.77L1411.20 149.65L1468.80 149.65zM1094.40 199.53L1152.00 199.53L1123.20 249.42zM892.80 249.42L864.00 299.30L921.60 299.30zM1353.60 349.18L1411.20 349.18L1382.40 399.06zM1036.80 498.83L1094.40 498.83L1065.60 548.71zM1036.80 598.60L1094.40 598.60L1065.60 648.48zM1382.40 598.60L1440.00 598.60L1411.20 648.48zM892.80 648.48L864.00 698.36L921.60 698.36zM1036.80 698.36L1008.00 748.25L1065.60 748.25zM172.80 798.13L144.00 848.01L201.60 848.01zM288.00 798.13L345.60 798.13L316.80 848.01z" style="fill:rgb(0, 96, 136);;animation:none"></path>
<path fill="rgb(0, 121, 153)" d="M1209.60 0.00L1267.20 0.00L1238.40 49.88zM1382.40 0.00L1353.60 49.88L1411.20 49.88zM1526.40 49.88L1497.60 99.77L1555.20 99.77zM864.00 99.77L921.60 99.77L892.80 149.65zM1267.20 99.77L1238.40 149.65L1296.00 149.65zM489.60 149.65L460.80 199.53L518.40 199.53zM979.20 199.53L1036.80 199.53L1008.00 249.42zM1584.00 249.42L1641.60 249.42L1612.80 299.30zM1612.80 299.30L1670.40 299.30L1641.60 349.18zM1584.00 448.95L1641.60 448.95L1612.80 498.83zM57.60 598.60L115.20 598.60L86.40 648.48zM720.00 648.48L691.20 698.36L748.80 698.36zM835.20 648.48L892.80 648.48L864.00 698.36zM432.00 748.25L489.60 748.25L460.80 798.13zM835.20 748.25L806.40 798.13L864.00 798.13zM1526.40 748.25L1497.60 798.13L1555.20 798.13zM460.80 798.13L432.00 848.01L489.60 848.01zM518.40 798.13L576.00 798.13L547.20 848.01zM1036.80 798.13L1008.00 848.01L1065.60 848.01zM1728.00 798.13L1699.20 848.01L1756.80 848.01zM403.20 897.90L374.40 947.78L432.00 947.78z" style="fill:rgb(0, 121, 153);;animation:none"></path>
<path fill="rgb(0, 132, 159)" d="M979.20 0.00L950.40 49.88L1008.00 49.88zM1267.20 99.77L1324.80 99.77L1296.00 149.65zM1497.60 199.53L1555.20 199.53L1526.40 249.42zM662.40 249.42L633.60 299.30L691.20 299.30zM1497.60 299.30L1555.20 299.30L1526.40 349.18zM374.40 448.95L432.00 448.95L403.20 498.83zM1296.00 448.95L1267.20 498.83L1324.80 498.83zM1065.60 548.71L1123.20 548.71L1094.40 598.60zM1209.60 598.60L1267.20 598.60L1238.40 648.48zM374.40 648.48L432.00 648.48L403.20 698.36zM1180.80 648.48L1152.00 698.36L1209.60 698.36zM1065.60 848.01L1036.80 897.90L1094.40 897.90z" style="fill:rgb(0, 132, 159);;animation:none"></path>
<path fill="rgb(0, 134, 160)" d="M489.60 249.42L547.20 249.42L518.40 299.30zM1209.60 399.06L1267.20 399.06L1238.40 448.95zM1670.40 498.83L1641.60 548.71L1699.20 548.71zM720.00 548.71L777.60 548.71L748.80 598.60zM432.00 848.01L403.20 897.90L460.80 897.90zM1008.00 848.01L979.20 897.90L1036.80 897.90zM230.40 897.90L201.60 947.78L259.20 947.78z" style="fill:rgb(0, 134, 160);;animation:none"></path>
<path fill="rgb(0, 145, 166)" d="M1008.00 49.88L1065.60 49.88L1036.80 99.77zM1468.80 49.88L1440.00 99.77L1497.60 99.77zM1555.20 99.77L1612.80 99.77L1584.00 149.65zM1411.20 249.42L1382.40 299.30L1440.00 299.30zM1699.20 448.95L1670.40 498.83L1728.00 498.83zM1353.60 548.71L1324.80 598.60L1382.40 598.60zM1584.00 548.71L1555.20 598.60L1612.80 598.60zM1555.20 598.60L1612.80 598.60L1584.00 648.48zM1670.40 598.60L1641.60 648.48L1699.20 648.48zM1785.60 798.13L1843.20 798.13L1814.40 848.01z" style="fill:rgb(0, 145, 166);;animation:none"></path>
<path fill="rgb(0, 147, 166)" d="M1641.60 149.65L1699.20 149.65L1670.40 199.53zM1756.80 149.65L1814.40 149.65L1785.60 199.53zM1468.80 249.42L1526.40 249.42L1497.60 299.30zM1641.60 349.18L1612.80 399.06L1670.40 399.06zM691.20 399.06L748.80 399.06L720.00 448.95zM633.60 598.60L691.20 598.60L662.40 648.48zM1900.80 598.60L1872.00 648.48L1929.60 648.48zM1123.20 648.48L1180.80 648.48L1152.00 698.36zM806.40 698.36L777.60 748.25L835.20 748.25zM403.20 798.13L374.40 848.01L432.00 848.01zM403.20 798.13L460.80 798.13L432.00 848.01zM1152.00 798.13L1209.60 798.13L1180.80 848.01zM1324.80 897.90L1382.40 897.90L1353.60 947.78z" style="fill:rgb(0, 147, 166);;animation:none"></path>
<path fill="rgb(15, 155, 170)" d="M1123.20 249.42L1094.40 299.30L1152.00 299.30zM1670.40 299.30L1641.60 349.18L1699.20 349.18zM720.00 448.95L777.60 448.95L748.80 498.83zM432.00 548.71L489.60 548.71L460.80 598.60zM1180.80 548.71L1152.00 598.60L1209.60 598.60zM691.20 698.36L748.80 698.36L720.00 748.25zM576.00 798.13L547.20 848.01L604.80 848.01zM1497.60 798.13L1468.80 848.01L1526.40 848.01zM1123.20 848.01L1094.40 897.90L1152.00 897.90zM1612.80 897.90L1670.40 897.90L1641.60 947.78z" style="fill:rgb(15, 155, 170);;animation:none"></path>
<path fill="rgb(39, 169, 175)" d="M1526.40 49.88L1584.00 49.88L1555.20 99.77zM1929.60 49.88L1900.80 99.77L1958.40 99.77zM1267.20 199.53L1238.40 249.42L1296.00 249.42zM892.80 349.18L950.40 349.18L921.60 399.06zM979.20 399.06L1036.80 399.06L1008.00 448.95zM1900.80 399.06L1872.00 448.95L1929.60 448.95zM1785.60 498.83L1843.20 498.83L1814.40 548.71zM1756.80 548.71L1728.00 598.60L1785.60 598.60zM1929.60 548.71L1900.80 598.60L1958.40 598.60zM-86.40 748.25L-28.80 748.25L-57.60 798.13zM86.40 848.01L57.60 897.90L115.20 897.90zM950.40 848.01L921.60 897.90L979.20 897.90z" style="fill:rgb(39, 169, 175);;animation:none"></path>
<path fill="rgb(52, 178, 178)" d="M1180.80 49.88L1238.40 49.88L1209.60 99.77zM1612.80 99.77L1670.40 99.77L1641.60 149.65zM1814.40 149.65L1872.00 149.65L1843.20 199.53zM1411.20 349.18L1382.40 399.06L1440.00 399.06zM201.60 548.71L259.20 548.71L230.40 598.60zM1612.80 598.60L1584.00 648.48L1641.60 648.48z" style="fill:rgb(52, 178, 178);;animation:none"></path>
<path fill="rgb(73, 192, 182)" d="M1872.00 49.88L1843.20 99.77L1900.80 99.77zM1785.60 99.77L1843.20 99.77L1814.40 149.65zM1353.60 149.65L1411.20 149.65L1382.40 199.53zM1699.20 149.65L1670.40 199.53L1728.00 199.53zM1929.60 149.65L1900.80 199.53L1958.40 199.53zM1900.80 199.53L1958.40 199.53L1929.60 249.42zM1584.00 249.42L1555.20 299.30L1612.80 299.30zM748.80 299.30L806.40 299.30L777.60 349.18zM1324.80 299.30L1382.40 299.30L1353.60 349.18zM1670.40 299.30L1728.00 299.30L1699.20 349.18zM1843.20 299.30L1814.40 349.18L1872.00 349.18zM1296.00 349.18L1353.60 349.18L1324.80 399.06zM1411.20 349.18L1468.80 349.18L1440.00 399.06zM460.80 399.06L518.40 399.06L489.60 448.95zM806.40 399.06L777.60 448.95L835.20 448.95zM864.00 399.06L921.60 399.06L892.80 448.95zM604.80 448.95L576.00 498.83L633.60 498.83zM1526.40 448.95L1497.60 498.83L1555.20 498.83zM1641.60 448.95L1612.80 498.83L1670.40 498.83zM1756.80 448.95L1814.40 448.95L1785.60 498.83zM1814.40 448.95L1872.00 448.95L1843.20 498.83zM576.00 498.83L633.60 498.83L604.80 548.71zM1555.20 498.83L1526.40 548.71L1584.00 548.71zM1670.40 498.83L1728.00 498.83L1699.20 548.71zM1728.00 498.83L1785.60 498.83L1756.80 548.71zM1843.20 498.83L1814.40 548.71L1872.00 548.71zM1958.40 498.83L1929.60 548.71L1987.20 548.71zM1238.40 548.71L1296.00 548.71L1267.20 598.60zM1353.60 548.71L1411.20 548.71L1382.40 598.60zM1641.60 548.71L1699.20 548.71L1670.40 598.60zM1699.20 548.71L1756.80 548.71L1728.00 598.60zM1324.80 598.60L1382.40 598.60L1353.60 648.48zM1382.40 598.60L1353.60 648.48L1411.20 648.48zM1670.40 598.60L1728.00 598.60L1699.20 648.48zM1728.00 598.60L1699.20 648.48L1756.80 648.48zM1958.40 598.60L1929.60 648.48L1987.20 648.48zM1526.40 648.48L1497.60 698.36L1555.20 698.36zM1699.20 648.48L1756.80 648.48L1728.00 698.36zM1756.80 648.48L1728.00 698.36L1785.60 698.36zM1814.40 648.48L1785.60 698.36L1843.20 698.36zM1872.00 648.48L1929.60 648.48L1900.80 698.36zM979.20 698.36L1036.80 698.36L1008.00 748.25zM1036.80 698.36L1094.40 698.36L1065.60 748.25zM1094.40 698.36L1065.60 748.25L1123.20 748.25zM1382.40 698.36L1440.00 698.36L1411.20 748.25zM1555.20 698.36L1612.80 698.36L1584.00 748.25zM1612.80 698.36L1584.00 748.25L1641.60 748.25zM1670.40 698.36L1728.00 698.36L1699.20 748.25zM835.20 748.25L892.80 748.25L864.00 798.13zM1123.20 748.25L1094.40 798.13L1152.00 798.13zM1468.80 748.25L1526.40 748.25L1497.60 798.13zM1526.40 748.25L1584.00 748.25L1555.20 798.13zM1756.80 748.25L1728.00 798.13L1785.60 798.13zM1872.00 748.25L1843.20 798.13L1900.80 798.13zM1872.00 748.25L1929.60 748.25L1900.80 798.13zM979.20 798.13L1036.80 798.13L1008.00 848.01zM1152.00 798.13L1123.20 848.01L1180.80 848.01zM1324.80 798.13L1296.00 848.01L1353.60 848.01zM1440.00 798.13L1497.60 798.13L1468.80 848.01zM1555.20 798.13L1526.40 848.01L1584.00 848.01zM1612.80 798.13L1584.00 848.01L1641.60 848.01zM1900.80 798.13L1872.00 848.01L1929.60 848.01zM892.80 848.01L950.40 848.01L921.60 897.90zM1065.60 848.01L1123.20 848.01L1094.40 897.90zM1123.20 848.01L1180.80 848.01L1152.00 897.90zM1411.20 848.01L1382.40 897.90L1440.00 897.90zM1526.40 848.01L1497.60 897.90L1555.20 897.90zM1526.40 848.01L1584.00 848.01L1555.20 897.90zM1584.00 848.01L1641.60 848.01L1612.80 897.90zM1641.60 848.01L1612.80 897.90L1670.40 897.90zM1641.60 848.01L1699.20 848.01L1670.40 897.90zM1699.20 848.01L1670.40 897.90L1728.00 897.90zM1756.80 848.01L1728.00 897.90L1785.60 897.90zM1814.40 848.01L1785.60 897.90L1843.20 897.90zM403.20 897.90L460.80 897.90L432.00 947.78zM921.60 897.90L892.80 947.78L950.40 947.78zM979.20 897.90L1036.80 897.90L1008.00 947.78zM1094.40 897.90L1152.00 897.90L1123.20 947.78zM1267.20 897.90L1238.40 947.78L1296.00 947.78zM1440.00 897.90L1411.20 947.78L1468.80 947.78zM1440.00 897.90L1497.60 897.90L1468.80 947.78zM1497.60 897.90L1468.80 947.78L1526.40 947.78zM1670.40 897.90L1641.60 947.78L1699.20 947.78zM1728.00 897.90L1785.60 897.90L1756.80 947.78zM1843.20 897.90L1900.80 897.90L1872.00 947.78zM1900.80 897.90L1872.00 947.78L1929.60 947.78z" style="fill:rgb(73, 192, 182);;animation:none"></path>
<path fill="rgb(12, 56, 102)" d="M0.00 0.00L57.60 0.00L28.80 49.88zM57.60 0.00L28.80 49.88L86.40 49.88zM57.60 0.00L115.20 0.00L86.40 49.88zM172.80 0.00L144.00 49.88L201.60 49.88zM230.40 0.00L288.00 0.00L259.20 49.88zM288.00 0.00L259.20 49.88L316.80 49.88zM345.60 0.00L403.20 0.00L374.40 49.88zM518.40 0.00L489.60 49.88L547.20 49.88zM576.00 0.00L547.20 49.88L604.80 49.88zM576.00 0.00L633.60 0.00L604.80 49.88zM633.60 0.00L691.20 0.00L662.40 49.88zM691.20 0.00L662.40 49.88L720.00 49.88zM806.40 0.00L777.60 49.88L835.20 49.88zM806.40 0.00L864.00 0.00L835.20 49.88zM1036.80 0.00L1094.40 0.00L1065.60 49.88zM1094.40 0.00L1152.00 0.00L1123.20 49.88zM1785.60 0.00L1843.20 0.00L1814.40 49.88zM86.40 49.88L57.60 99.77L115.20 99.77zM86.40 49.88L144.00 49.88L115.20 99.77zM201.60 49.88L259.20 49.88L230.40 99.77zM316.80 49.88L288.00 99.77L345.60 99.77zM316.80 49.88L374.40 49.88L345.60 99.77zM374.40 49.88L345.60 99.77L403.20 99.77zM547.20 49.88L604.80 49.88L576.00 99.77zM604.80 49.88L576.00 99.77L633.60 99.77zM604.80 49.88L662.40 49.88L633.60 99.77zM662.40 49.88L633.60 99.77L691.20 99.77zM720.00 49.88L691.20 99.77L748.80 99.77zM835.20 49.88L892.80 49.88L864.00 99.77zM950.40 49.88L921.60 99.77L979.20 99.77zM1296.00 49.88L1267.20 99.77L1324.80 99.77zM1699.20 49.88L1756.80 49.88L1728.00 99.77zM57.60 99.77L115.20 99.77L86.40 149.65zM172.80 99.77L230.40 99.77L201.60 149.65zM288.00 99.77L259.20 149.65L316.80 149.65zM403.20 99.77L374.40 149.65L432.00 149.65zM518.40 99.77L489.60 149.65L547.20 149.65zM576.00 99.77L547.20 149.65L604.80 149.65zM576.00 99.77L633.60 99.77L604.80 149.65zM691.20 99.77L662.40 149.65L720.00 149.65zM864.00 99.77L835.20 149.65L892.80 149.65zM921.60 99.77L892.80 149.65L950.40 149.65zM921.60 99.77L979.20 99.77L950.40 149.65zM1324.80 99.77L1296.00 149.65L1353.60 149.65zM1612.80 99.77L1584.00 149.65L1641.60 149.65zM-28.80 149.65L-57.60 199.53L0.00 199.53zM316.80 149.65L288.00 199.53L345.60 199.53zM374.40 149.65L432.00 149.65L403.20 199.53zM662.40 149.65L720.00 149.65L691.20 199.53zM720.00 149.65L691.20 199.53L748.80 199.53zM777.60 149.65L835.20 149.65L806.40 199.53zM1468.80 149.65L1440.00 199.53L1497.60 199.53zM1814.40 149.65L1785.60 199.53L1843.20 199.53zM0.00 199.53L-28.80 249.42L28.80 249.42zM0.00 199.53L57.60 199.53L28.80 249.42zM57.60 199.53L115.20 199.53L86.40 249.42zM115.20 199.53L86.40 249.42L144.00 249.42zM460.80 199.53L432.00 249.42L489.60 249.42zM518.40 199.53L576.00 199.53L547.20 249.42zM633.60 199.53L691.20 199.53L662.40 249.42zM806.40 199.53L777.60 249.42L835.20 249.42zM1036.80 199.53L1008.00 249.42L1065.60 249.42zM1324.80 199.53L1382.40 199.53L1353.60 249.42zM1382.40 199.53L1353.60 249.42L1411.20 249.42zM1382.40 199.53L1440.00 199.53L1411.20 249.42zM1497.60 199.53L1468.80 249.42L1526.40 249.42zM1670.40 199.53L1641.60 249.42L1699.20 249.42zM1728.00 199.53L1699.20 249.42L1756.80 249.42zM-28.80 249.42L28.80 249.42L0.00 299.30zM28.80 249.42L0.00 299.30L57.60 299.30zM28.80 249.42L86.40 249.42L57.60 299.30zM86.40 249.42L144.00 249.42L115.20 299.30zM144.00 249.42L201.60 249.42L172.80 299.30zM547.20 249.42L518.40 299.30L576.00 299.30zM604.80 249.42L576.00 299.30L633.60 299.30zM1065.60 249.42L1036.80 299.30L1094.40 299.30zM1238.40 249.42L1296.00 249.42L1267.20 299.30zM1296.00 249.42L1353.60 249.42L1324.80 299.30zM0.00 299.30L-28.80 349.18L28.80 349.18zM0.00 299.30L57.60 299.30L28.80 349.18zM57.60 299.30L28.80 349.18L86.40 349.18zM57.60 299.30L115.20 299.30L86.40 349.18zM288.00 299.30L259.20 349.18L316.80 349.18zM288.00 299.30L345.60 299.30L316.80 349.18zM345.60 299.30L316.80 349.18L374.40 349.18zM403.20 299.30L460.80 299.30L432.00 349.18zM518.40 299.30L489.60 349.18L547.20 349.18zM518.40 299.30L576.00 299.30L547.20 349.18zM691.20 299.30L748.80 299.30L720.00 349.18zM921.60 299.30L892.80 349.18L950.40 349.18zM1094.40 299.30L1065.60 349.18L1123.20 349.18zM1267.20 299.30L1238.40 349.18L1296.00 349.18zM1900.80 299.30L1872.00 349.18L1929.60 349.18zM201.60 349.18L259.20 349.18L230.40 399.06zM316.80 349.18L374.40 349.18L345.60 399.06zM662.40 349.18L720.00 349.18L691.20 399.06zM777.60 349.18L748.80 399.06L806.40 399.06zM950.40 349.18L921.60 399.06L979.20 399.06zM950.40 349.18L1008.00 349.18L979.20 399.06zM1008.00 349.18L979.20 399.06L1036.80 399.06zM1008.00 349.18L1065.60 349.18L1036.80 399.06zM1123.20 349.18L1094.40 399.06L1152.00 399.06zM1238.40 349.18L1296.00 349.18L1267.20 399.06zM1526.40 349.18L1584.00 349.18L1555.20 399.06zM1814.40 349.18L1872.00 349.18L1843.20 399.06zM0.00 399.06L-28.80 448.95L28.80 448.95zM172.80 399.06L144.00 448.95L201.60 448.95zM172.80 399.06L230.40 399.06L201.60 448.95zM518.40 399.06L576.00 399.06L547.20 448.95zM633.60 399.06L604.80 448.95L662.40 448.95zM864.00 399.06L835.20 448.95L892.80 448.95zM921.60 399.06L892.80 448.95L950.40 448.95zM1036.80 399.06L1008.00 448.95L1065.60 448.95zM1382.40 399.06L1353.60 448.95L1411.20 448.95zM1555.20 399.06L1526.40 448.95L1584.00 448.95zM1612.80 399.06L1670.40 399.06L1641.60 448.95zM28.80 448.95L86.40 448.95L57.60 498.83zM201.60 448.95L259.20 448.95L230.40 498.83zM259.20 448.95L230.40 498.83L288.00 498.83zM259.20 448.95L316.80 448.95L288.00 498.83zM374.40 448.95L345.60 498.83L403.20 498.83zM432.00 448.95L489.60 448.95L460.80 498.83zM489.60 448.95L460.80 498.83L518.40 498.83zM720.00 448.95L691.20 498.83L748.80 498.83zM1180.80 448.95L1238.40 448.95L1209.60 498.83zM0.00 498.83L57.60 498.83L28.80 548.71zM115.20 498.83L86.40 548.71L144.00 548.71zM230.40 498.83L201.60 548.71L259.20 548.71zM230.40 498.83L288.00 498.83L259.20 548.71zM345.60 498.83L403.20 498.83L374.40 548.71zM403.20 498.83L460.80 498.83L432.00 548.71zM460.80 498.83L432.00 548.71L489.60 548.71zM633.60 498.83L691.20 498.83L662.40 548.71zM748.80 498.83L806.40 498.83L777.60 548.71zM864.00 498.83L921.60 498.83L892.80 548.71zM921.60 498.83L892.80 548.71L950.40 548.71zM979.20 498.83L950.40 548.71L1008.00 548.71zM1324.80 498.83L1382.40 498.83L1353.60 548.71zM144.00 548.71L201.60 548.71L172.80 598.60zM201.60 548.71L172.80 598.60L230.40 598.60zM316.80 548.71L288.00 598.60L345.60 598.60zM316.80 548.71L374.40 548.71L345.60 598.60zM547.20 548.71L518.40 598.60L576.00 598.60zM547.20 548.71L604.80 548.71L576.00 598.60zM604.80 548.71L662.40 548.71L633.60 598.60zM950.40 548.71L1008.00 548.71L979.20 598.60zM288.00 598.60L259.20 648.48L316.80 648.48zM345.60 598.60L403.20 598.60L374.40 648.48zM460.80 598.60L432.00 648.48L489.60 648.48zM691.20 598.60L662.40 648.48L720.00 648.48zM1036.80 598.60L1008.00 648.48L1065.60 648.48zM1209.60 598.60L1180.80 648.48L1238.40 648.48zM1785.60 598.60L1843.20 598.60L1814.40 648.48zM-28.80 648.48L-57.60 698.36L0.00 698.36zM86.40 648.48L57.60 698.36L115.20 698.36zM259.20 648.48L316.80 648.48L288.00 698.36zM604.80 648.48L576.00 698.36L633.60 698.36zM777.60 648.48L835.20 648.48L806.40 698.36zM950.40 648.48L1008.00 648.48L979.20 698.36zM1008.00 648.48L1065.60 648.48L1036.80 698.36zM1065.60 648.48L1123.20 648.48L1094.40 698.36zM1641.60 648.48L1699.20 648.48L1670.40 698.36zM0.00 698.36L-28.80 748.25L28.80 748.25zM115.20 698.36L172.80 698.36L144.00 748.25zM172.80 698.36L144.00 748.25L201.60 748.25zM345.60 698.36L316.80 748.25L374.40 748.25zM633.60 698.36L604.80 748.25L662.40 748.25zM748.80 698.36L806.40 698.36L777.60 748.25zM921.60 698.36L979.20 698.36L950.40 748.25zM1209.60 698.36L1180.80 748.25L1238.40 748.25zM28.80 748.25L0.00 798.13L57.60 798.13zM201.60 748.25L172.80 798.13L230.40 798.13zM259.20 748.25L230.40 798.13L288.00 798.13zM374.40 748.25L345.60 798.13L403.20 798.13zM604.80 748.25L576.00 798.13L633.60 798.13zM662.40 748.25L720.00 748.25L691.20 798.13zM1008.00 748.25L1065.60 748.25L1036.80 798.13zM1065.60 748.25L1123.20 748.25L1094.40 798.13zM576.00 798.13L633.60 798.13L604.80 848.01zM-86.40 848.01L-28.80 848.01L-57.60 897.90zM28.80 848.01L86.40 848.01L57.60 897.90zM604.80 848.01L662.40 848.01L633.60 897.90zM460.80 897.90L518.40 897.90L489.60 947.78zM576.00 897.90L633.60 897.90L604.80 947.78zM748.80 897.90L720.00 947.78L777.60 947.78zM979.20 897.90L950.40 947.78L1008.00 947.78z" style="fill:rgb(12, 56, 102);;animation:none"></path>
<path fill="rgb(10, 59, 105)" d="M-86.40 49.88L-28.80 49.88L-57.60 99.77zM1065.60 49.88L1123.20 49.88L1094.40 99.77zM1180.80 149.65L1238.40 149.65L1209.60 199.53zM691.20 199.53L748.80 199.53L720.00 249.42zM1555.20 199.53L1612.80 199.53L1584.00 249.42zM403.20 299.30L374.40 349.18L432.00 349.18zM864.00 299.30L835.20 349.18L892.80 349.18zM230.40 399.06L288.00 399.06L259.20 448.95zM1440.00 399.06L1497.60 399.06L1468.80 448.95zM691.20 498.83L662.40 548.71L720.00 548.71zM1584.00 548.71L1641.60 548.71L1612.80 598.60zM403.20 598.60L460.80 598.60L432.00 648.48zM-57.60 798.13L0.00 798.13L-28.80 848.01zM230.40 798.13L288.00 798.13L259.20 848.01zM1094.40 798.13L1152.00 798.13L1123.20 848.01zM-28.80 848.01L-57.60 897.90L0.00 897.90zM57.60 897.90L28.80 947.78L86.40 947.78zM57.60 897.90L115.20 897.90L86.40 947.78zM345.60 897.90L316.80 947.78L374.40 947.78zM633.60 897.90L691.20 897.90L662.40 947.78z" style="fill:rgb(10, 59, 105);;animation:none"></path>
<path fill="rgb(0, 78, 122)" d="M979.20 99.77L1036.80 99.77L1008.00 149.65zM1094.40 99.77L1065.60 149.65L1123.20 149.65zM662.40 149.65L633.60 199.53L691.20 199.53zM1180.80 149.65L1152.00 199.53L1209.60 199.53zM1411.20 149.65L1468.80 149.65L1440.00 199.53zM1152.00 199.53L1209.60 199.53L1180.80 249.42zM979.20 498.83L1036.80 498.83L1008.00 548.71zM1382.40 498.83L1353.60 548.71L1411.20 548.71zM374.40 648.48L345.60 698.36L403.20 698.36zM432.00 648.48L403.20 698.36L460.80 698.36zM662.40 648.48L720.00 648.48L691.20 698.36zM720.00 648.48L777.60 648.48L748.80 698.36zM1267.20 698.36L1238.40 748.25L1296.00 748.25zM604.80 748.25L662.40 748.25L633.60 798.13zM1296.00 748.25L1353.60 748.25L1324.80 798.13zM662.40 848.01L720.00 848.01L691.20 897.90zM633.60 897.90L604.80 947.78L662.40 947.78z" style="fill:rgb(0, 78, 122);;animation:none"></path>
<path fill="rgb(0, 86, 129)" d="M633.60 99.77L691.20 99.77L662.40 149.65zM748.80 99.77L806.40 99.77L777.60 149.65zM748.80 199.53L806.40 199.53L777.60 249.42zM950.40 249.42L1008.00 249.42L979.20 299.30zM1008.00 249.42L979.20 299.30L1036.80 299.30zM1065.60 349.18L1123.20 349.18L1094.40 399.06zM1526.40 349.18L1497.60 399.06L1555.20 399.06zM1267.20 399.06L1324.80 399.06L1296.00 448.95zM1094.40 498.83L1065.60 548.71L1123.20 548.71zM1152.00 498.83L1209.60 498.83L1180.80 548.71zM604.80 548.71L576.00 598.60L633.60 598.60zM1267.20 598.60L1238.40 648.48L1296.00 648.48zM115.20 798.13L86.40 848.01L144.00 848.01zM172.80 798.13L230.40 798.13L201.60 848.01zM691.20 798.13L662.40 848.01L720.00 848.01z" style="fill:rgb(0, 86, 129);;animation:none"></path>
<path fill="rgb(0, 89, 131)" d="M1094.40 0.00L1065.60 49.88L1123.20 49.88zM777.60 49.88L835.20 49.88L806.40 99.77zM1296.00 49.88L1353.60 49.88L1324.80 99.77zM1353.60 49.88L1324.80 99.77L1382.40 99.77zM1756.80 49.88L1814.40 49.88L1785.60 99.77zM604.80 149.65L662.40 149.65L633.60 199.53zM1872.00 149.65L1843.20 199.53L1900.80 199.53zM576.00 199.53L547.20 249.42L604.80 249.42zM1555.20 199.53L1526.40 249.42L1584.00 249.42zM259.20 349.18L316.80 349.18L288.00 399.06zM1584.00 349.18L1641.60 349.18L1612.80 399.06zM1440.00 399.06L1411.20 448.95L1468.80 448.95zM835.20 448.95L806.40 498.83L864.00 498.83zM1699.20 448.95L1756.80 448.95L1728.00 498.83zM806.40 798.13L777.60 848.01L835.20 848.01zM374.40 848.01L345.60 897.90L403.20 897.90zM489.60 848.01L547.20 848.01L518.40 897.90zM720.00 848.01L777.60 848.01L748.80 897.90zM1468.80 848.01L1440.00 897.90L1497.60 897.90zM864.00 897.90L921.60 897.90L892.80 947.78z" style="fill:rgb(0, 89, 131);;animation:none"></path>
<path fill="rgb(0, 100, 139)" d="M777.60 49.88L748.80 99.77L806.40 99.77zM230.40 99.77L201.60 149.65L259.20 149.65zM1497.60 299.30L1468.80 349.18L1526.40 349.18zM547.20 349.18L604.80 349.18L576.00 399.06zM1468.80 349.18L1526.40 349.18L1497.60 399.06zM403.20 399.06L460.80 399.06L432.00 448.95zM892.80 448.95L864.00 498.83L921.60 498.83zM1468.80 448.95L1440.00 498.83L1497.60 498.83zM864.00 498.83L835.20 548.71L892.80 548.71zM-28.80 548.71L28.80 548.71L0.00 598.60zM1008.00 548.71L1065.60 548.71L1036.80 598.60zM1238.40 548.71L1209.60 598.60L1267.20 598.60zM1296.00 548.71L1267.20 598.60L1324.80 598.60zM979.20 598.60L950.40 648.48L1008.00 648.48zM691.20 698.36L662.40 748.25L720.00 748.25z" style="fill:rgb(0, 100, 139);;animation:none"></path>
<path fill="rgb(0, 111, 147)" d="M1584.00 149.65L1555.20 199.53L1612.80 199.53zM921.60 199.53L892.80 249.42L950.40 249.42zM633.60 299.30L604.80 349.18L662.40 349.18zM1238.40 349.18L1209.60 399.06L1267.20 399.06zM1468.80 349.18L1440.00 399.06L1497.60 399.06zM1555.20 399.06L1612.80 399.06L1584.00 448.95zM1843.20 399.06L1900.80 399.06L1872.00 448.95zM1065.60 448.95L1036.80 498.83L1094.40 498.83zM1152.00 498.83L1123.20 548.71L1180.80 548.71zM835.20 548.71L806.40 598.60L864.00 598.60zM1094.40 598.60L1065.60 648.48L1123.20 648.48zM1526.40 648.48L1584.00 648.48L1555.20 698.36zM172.80 698.36L230.40 698.36L201.60 748.25zM230.40 698.36L201.60 748.25L259.20 748.25zM288.00 798.13L259.20 848.01L316.80 848.01z" style="fill:rgb(0, 111, 147);;animation:none"></path>
<path fill="rgb(0, 132, 159)" d="M1238.40 49.88L1209.60 99.77L1267.20 99.77zM1008.00 149.65L979.20 199.53L1036.80 199.53zM633.60 199.53L604.80 249.42L662.40 249.42zM777.60 249.42L748.80 299.30L806.40 299.30zM1756.80 249.42L1814.40 249.42L1785.60 299.30zM576.00 299.30L633.60 299.30L604.80 349.18zM1555.20 299.30L1612.80 299.30L1584.00 349.18zM777.60 349.18L835.20 349.18L806.40 399.06zM1641.60 349.18L1699.20 349.18L1670.40 399.06zM1440.00 598.60L1411.20 648.48L1468.80 648.48zM604.80 648.48L662.40 648.48L633.60 698.36zM403.20 698.36L460.80 698.36L432.00 748.25zM259.20 748.25L316.80 748.25L288.00 798.13zM86.40 848.01L144.00 848.01L115.20 897.90zM662.40 848.01L633.60 897.90L691.20 897.90zM1008.00 848.01L1065.60 848.01L1036.80 897.90zM1382.40 897.90L1440.00 897.90L1411.20 947.78z" style="fill:rgb(0, 132, 159);;animation:none"></path>
<path fill="rgb(0, 137, 161)" d="M1612.80 0.00L1584.00 49.88L1641.60 49.88zM1900.80 0.00L1958.40 0.00L1929.60 49.88zM1526.40 249.42L1584.00 249.42L1555.20 299.30zM1958.40 399.06L1929.60 448.95L1987.20 448.95zM950.40 448.95L1008.00 448.95L979.20 498.83zM950.40 548.71L921.60 598.60L979.20 598.60zM1123.20 548.71L1094.40 598.60L1152.00 598.60zM230.40 698.36L288.00 698.36L259.20 748.25zM345.60 698.36L403.20 698.36L374.40 748.25zM547.20 748.25L604.80 748.25L576.00 798.13zM1123.20 748.25L1180.80 748.25L1152.00 798.13zM1238.40 748.25L1209.60 798.13L1267.20 798.13zM892.80 848.01L864.00 897.90L921.60 897.90z" style="fill:rgb(0, 137, 161);;animation:none"></path>
<path fill="rgb(0, 141, 163)" d="M1843.20 0.00L1900.80 0.00L1872.00 49.88zM1900.80 199.53L1872.00 249.42L1929.60 249.42zM1180.80 249.42L1152.00 299.30L1209.60 299.30zM1756.80 548.71L1814.40 548.71L1785.60 598.60zM806.40 598.60L777.60 648.48L835.20 648.48zM1728.00 598.60L1785.60 598.60L1756.80 648.48zM1785.60 598.60L1756.80 648.48L1814.40 648.48zM1065.60 648.48L1036.80 698.36L1094.40 698.36zM1353.60 648.48L1411.20 648.48L1382.40 698.36zM518.40 698.36L576.00 698.36L547.20 748.25zM144.00 748.25L115.20 798.13L172.80 798.13zM720.00 748.25L691.20 798.13L748.80 798.13zM1065.60 748.25L1036.80 798.13L1094.40 798.13zM1843.20 798.13L1814.40 848.01L1872.00 848.01z" style="fill:rgb(0, 141, 163);;animation:none"></path>
<path fill="rgb(17, 156, 170)" d="M1382.40 0.00L1440.00 0.00L1411.20 49.88zM1728.00 0.00L1785.60 0.00L1756.80 49.88zM1238.40 149.65L1296.00 149.65L1267.20 199.53zM1728.00 199.53L1785.60 199.53L1756.80 249.42zM1699.20 249.42L1756.80 249.42L1728.00 299.30zM1814.40 249.42L1785.60 299.30L1843.20 299.30zM1094.40 299.30L1152.00 299.30L1123.20 349.18zM1670.40 399.06L1641.60 448.95L1699.20 448.95zM1440.00 498.83L1411.20 548.71L1468.80 548.71zM1526.40 548.71L1584.00 548.71L1555.20 598.60zM1411.20 648.48L1382.40 698.36L1440.00 698.36zM1296.00 848.01L1353.60 848.01L1324.80 897.90z" style="fill:rgb(17, 156, 170);;animation:none"></path>
<path fill="rgb(37, 168, 175)" d="M1843.20 99.77L1814.40 149.65L1872.00 149.65zM1382.40 299.30L1353.60 349.18L1411.20 349.18zM1843.20 299.30L1900.80 299.30L1872.00 349.18zM288.00 498.83L345.60 498.83L316.80 548.71zM777.60 548.71L748.80 598.60L806.40 598.60zM1008.00 748.25L979.20 798.13L1036.80 798.13zM115.20 798.13L172.80 798.13L144.00 848.01zM345.60 897.90L403.20 897.90L374.40 947.78zM1152.00 897.90L1209.60 897.90L1180.80 947.78z" style="fill:rgb(37, 168, 175);;animation:none"></path>
<path fill="rgb(34, 166, 174)" d="M1440.00 99.77L1497.60 99.77L1468.80 149.65zM1296.00 149.65L1267.20 199.53L1324.80 199.53zM1699.20 149.65L1756.80 149.65L1728.00 199.53zM1756.80 149.65L1728.00 199.53L1785.60 199.53zM1238.40 448.95L1209.60 498.83L1267.20 498.83zM1382.40 698.36L1353.60 748.25L1411.20 748.25zM777.60 848.01L835.20 848.01L806.40 897.90zM1296.00 848.01L1267.20 897.90L1324.80 897.90z" style="fill:rgb(34, 166, 174);;animation:none"></path>
<path fill="rgb(58, 181, 179)" d="M1641.60 149.65L1612.80 199.53L1670.40 199.53zM1843.20 199.53L1814.40 249.42L1872.00 249.42zM1382.40 299.30L1440.00 299.30L1411.20 349.18zM1699.20 548.71L1670.40 598.60L1728.00 598.60zM806.40 698.36L864.00 698.36L835.20 748.25zM1699.20 748.25L1756.80 748.25L1728.00 798.13zM1382.40 798.13L1440.00 798.13L1411.20 848.01zM1814.40 848.01L1872.00 848.01L1843.20 897.90zM1929.60 848.01L1900.80 897.90L1958.40 897.90z" style="fill:rgb(58, 181, 179);;animation:none"></path>
<path fill="rgb(66, 187, 181)" d="M1612.80 0.00L1670.40 0.00L1641.60 49.88zM1843.20 0.00L1814.40 49.88L1872.00 49.88zM1468.80 49.88L1526.40 49.88L1497.60 99.77zM1900.80 99.77L1872.00 149.65L1929.60 149.65zM1468.80 149.65L1526.40 149.65L1497.60 199.53zM1843.20 199.53L1900.80 199.53L1872.00 249.42zM1641.60 249.42L1612.80 299.30L1670.40 299.30zM1814.40 249.42L1872.00 249.42L1843.20 299.30zM1785.60 299.30L1843.20 299.30L1814.40 349.18zM1900.80 299.30L1958.40 299.30L1929.60 349.18zM720.00 349.18L777.60 349.18L748.80 399.06zM835.20 349.18L806.40 399.06L864.00 399.06zM1699.20 349.18L1670.40 399.06L1728.00 399.06zM1756.80 349.18L1814.40 349.18L1785.60 399.06zM1612.80 399.06L1584.00 448.95L1641.60 448.95zM1670.40 399.06L1728.00 399.06L1699.20 448.95zM1785.60 399.06L1843.20 399.06L1814.40 448.95zM1843.20 399.06L1814.40 448.95L1872.00 448.95zM1900.80 399.06L1958.40 399.06L1929.60 448.95zM835.20 448.95L892.80 448.95L864.00 498.83zM1353.60 448.95L1324.80 498.83L1382.40 498.83zM1929.60 448.95L1900.80 498.83L1958.40 498.83zM1209.60 498.83L1267.20 498.83L1238.40 548.71zM1728.00 498.83L1699.20 548.71L1756.80 548.71zM1843.20 498.83L1900.80 498.83L1872.00 548.71zM1180.80 548.71L1238.40 548.71L1209.60 598.60zM1526.40 548.71L1497.60 598.60L1555.20 598.60zM1814.40 548.71L1785.60 598.60L1843.20 598.60zM1872.00 548.71L1843.20 598.60L1900.80 598.60zM1872.00 548.71L1929.60 548.71L1900.80 598.60zM432.00 648.48L489.60 648.48L460.80 698.36zM662.40 648.48L633.60 698.36L691.20 698.36zM1238.40 648.48L1209.60 698.36L1267.20 698.36zM1699.20 648.48L1670.40 698.36L1728.00 698.36zM1756.80 648.48L1814.40 648.48L1785.60 698.36zM1872.00 648.48L1843.20 698.36L1900.80 698.36zM1929.60 648.48L1900.80 698.36L1958.40 698.36zM1094.40 698.36L1152.00 698.36L1123.20 748.25zM1612.80 698.36L1670.40 698.36L1641.60 748.25zM1670.40 698.36L1641.60 748.25L1699.20 748.25zM1728.00 698.36L1699.20 748.25L1756.80 748.25zM1843.20 698.36L1814.40 748.25L1872.00 748.25zM1843.20 698.36L1900.80 698.36L1872.00 748.25zM1900.80 698.36L1872.00 748.25L1929.60 748.25zM1958.40 698.36L1929.60 748.25L1987.20 748.25zM720.00 748.25L777.60 748.25L748.80 798.13zM1180.80 748.25L1238.40 748.25L1209.60 798.13zM1296.00 748.25L1267.20 798.13L1324.80 798.13zM1353.60 748.25L1411.20 748.25L1382.40 798.13zM1411.20 748.25L1382.40 798.13L1440.00 798.13zM1584.00 748.25L1641.60 748.25L1612.80 798.13zM1699.20 748.25L1670.40 798.13L1728.00 798.13zM1756.80 748.25L1814.40 748.25L1785.60 798.13zM633.60 798.13L604.80 848.01L662.40 848.01zM691.20 798.13L748.80 798.13L720.00 848.01zM1497.60 798.13L1555.20 798.13L1526.40 848.01zM1670.40 798.13L1728.00 798.13L1699.20 848.01zM1728.00 798.13L1785.60 798.13L1756.80 848.01zM1843.20 798.13L1900.80 798.13L1872.00 848.01zM1958.40 798.13L1929.60 848.01L1987.20 848.01zM547.20 848.01L604.80 848.01L576.00 897.90zM1238.40 848.01L1209.60 897.90L1267.20 897.90zM1353.60 848.01L1411.20 848.01L1382.40 897.90zM1756.80 848.01L1814.40 848.01L1785.60 897.90zM1872.00 848.01L1929.60 848.01L1900.80 897.90zM115.20 897.90L86.40 947.78L144.00 947.78zM460.80 897.90L432.00 947.78L489.60 947.78zM1036.80 897.90L1008.00 947.78L1065.60 947.78zM1209.60 897.90L1267.20 897.90L1238.40 947.78zM1497.60 897.90L1555.20 897.90L1526.40 947.78zM1555.20 897.90L1612.80 897.90L1584.00 947.78zM1612.80 897.90L1584.00 947.78L1641.60 947.78zM1670.40 897.90L1728.00 897.90L1699.20 947.78zM1958.40 897.90L1929.60 947.78L1987.20 947.78z" style="fill:rgb(66, 187, 181);;animation:none"></path>
<g></g></g><!-- [ldio] generated by https://loading.io --></svg>